<svg xmlns="http://www.w3.org/2000/svg" viewBox="0 0 154.19 175.36"><defs><style>.cls-1{fill:#fff;}.cls-2{fill:#9999ce;stroke:#9999ce;stroke-miterlimit:10;}.cls-3{fill:#6666cf;}.cls-4{fill:none;}</style></defs><title>Recurso 4</title><g id="Capa_2" data-name="Capa 2"><g id="Capa_1-2" data-name="Capa 1"><path class="cls-1" d="M63.7,169.09c0,1.66,0,3.32,0,5,0,.6,0,1.13-.84,1.12s-.82-.54-.82-1.14c0-2.06,0-4.13,0-6.2,0-.5.31-1.3.66-1.41a1.6,1.6,0,0,1,2.12.69A43.8,43.8,0,0,0,67.71,172c0-1.46,0-2.93,0-4.39,0-.57-.18-1.27.79-1.3s.82.68.82,1.26c0,2.07,0,4.13,0,6.2,0,.46-.43,1.3-.59,1.29-.66-.06-1.58-.2-1.87-.65-1-1.59-1.82-3.32-2.71-5l-.21-.39Z"/><path class="cls-1" d="M49.55,157.58c0-1.59,0-3.18,0-4.77,0-.65.23-1.07.87-.9a1.24,1.24,0,0,1,.72.9c.06,2.15.07,4.31,0,6.46,0,.48-.46,1.37-.64,1.35-.65-.06-1.55-.25-1.84-.71-1.08-1.7-1.94-3.53-3.13-5.3,0,1.63,0,3.26,0,4.89,0,.33,0,.77-.14,1a1.07,1.07,0,0,1-.93.21,1,1,0,0,1-.51-.71c0-2.37,0-4.74,0-7.11a1.19,1.19,0,0,1,.62-.91c.79-.15,1.66-.24,2.15.7q1.3,2.51,2.63,5Z"/><path class="cls-1" d="M110.74,170.6c0,2.58-1,4.15-3.08,4.6s-3.81-.17-4.59-1.52c-1.07-1.81-.79-5,.55-6.32a4.8,4.8,0,0,1,5.19-.71C110.44,167.47,110.69,169,110.74,170.6Zm-6.42-.06c0,.58,0,.89.08,1.19.16,1.38.79,2,2,2.08a2,2,0,0,0,2.35-1.89,9.16,9.16,0,0,0-.13-2.81,1.79,1.79,0,0,0-1.9-1.43,2,2,0,0,0-2.12,1.37A8.26,8.26,0,0,0,104.32,170.54Z"/><path class="cls-1" d="M68.91,156.34c0-2.68,1.31-4.32,3.59-4.55,2.06-.2,3.51.43,4.21,1.83.92,1.85.58,4.81-.69,6.1a4.84,4.84,0,0,1-5.08.76C69.54,159.83,68.9,158.52,68.91,156.34Zm1.87-.05c0,2.32,1,3.4,2.78,3,1.08-.22,1.68-1.12,1.77-2.68.11-1.8-.39-2.94-1.44-3.28a2.19,2.19,0,0,0-.51-.1C71.7,153.08,70.78,154.15,70.78,156.29Z"/><path class="cls-1" d="M127.18,156.55l1.85,3.81c-1.34.68-1.77.55-2.27-.6A8,8,0,0,0,126,158a5.91,5.91,0,0,0-1.42-1.06l-.37.31c0,.84,0,1.69,0,2.54,0,.63-.18,1-.87,1s-.9-.29-.89-.94q0-3.49,0-7c0-.74.33-1,1-1s1.29,0,1.93,0c1.25,0,2.45.22,3,1.58C128.8,154.63,128.4,155.55,127.18,156.55ZM124.26,153v2.95a10.25,10.25,0,0,0,2.12-.8,1.26,1.26,0,0,0,.05-1.22A10.82,10.82,0,0,0,124.26,153Z"/><path class="cls-1" d="M62.82,157.23a21.6,21.6,0,0,1,0,2.67,1.15,1.15,0,0,1-.8.79c-.3,0-.85-.46-.86-.73q-.1-3.61,0-7.23c0-.29.51-.74.85-.8a10.1,10.1,0,0,1,2.06,0c1.24,0,2.48.2,3,1.59a2.37,2.37,0,0,1-1.18,3l1.86,3.85c-1.36.67-1.78.54-2.28-.63a7.7,7.7,0,0,0-.78-1.75,6.27,6.27,0,0,0-1.44-1.07Zm.07-1.22a12,12,0,0,0,2.19-1,1.32,1.32,0,0,0-.07-1.22,9.8,9.8,0,0,0-2.12-.67Z"/><path class="cls-1" d="M71.77,169.73a16.66,16.66,0,0,1,0-2.45,1.41,1.41,0,0,1,.83-.93c.7-.18,1,.27,1,1,0,1.5,0,3,0,4.52,0,1.33.59,1.94,1.71,2s1.85-.61,1.89-2c0-1.5,0-3,0-4.52,0-.67.14-1.06.92-1s.89.46.88,1.1c0,1.47,0,2.93,0,4.4-.06,2.34-1.34,3.53-3.69,3.52s-3.46-1.17-3.5-3.52C71.77,171.11,71.78,170.42,71.77,169.73Z"/><path class="cls-1" d="M97.45,155.26c0,.9.07,1.82,0,2.71-.17,1.87-1.5,2.89-3.63,2.87s-3.33-1-3.44-2.89-.08-3.53,0-5.3c0-.27.56-.73.86-.73a1.18,1.18,0,0,1,.82.77c.09,1.24,0,2.5,0,3.75a9.22,9.22,0,0,0,.05,1.29,1.68,1.68,0,0,0,1.94,1.63,1.61,1.61,0,0,0,1.63-1.79c0-1.55,0-3.11,0-4.66,0-.67.15-1.06.92-1.06s.9.44.88,1.08,0,1.55,0,2.33Z"/><path class="cls-1" d="M138.18,160.53c-1.22.43-2,.36-2.24-1a.94.94,0,0,0-1.16-.88,6.74,6.74,0,0,1-1.42,0,1.06,1.06,0,0,0-1.34,1c-.21,1.18-1,1.22-2.07.87,1-2.79,1.88-5.51,2.91-8.19.12-.3.93-.48,1.41-.47a1.36,1.36,0,0,1,1.08.61C136.33,155.13,137.22,157.77,138.18,160.53Zm-3-3.31L134.1,154h-.26l-1,3.25Z"/><path class="cls-1" d="M120,155.26c0,.82,0,1.64,0,2.46-.12,2-1.44,3.14-3.66,3.12s-3.41-1.06-3.49-3.12c-.07-1.63-.07-3.27,0-4.91a1.34,1.34,0,0,1,.84-.91c.74-.2.92.31.9,1q0,2.13,0,4.26c0,1.53.68,2.26,1.91,2.22s1.7-.7,1.71-2.24c0-1.38,0-2.75,0-4.13,0-.7.07-1.17.94-1.15s.89.46.86,1.09,0,1.55,0,2.32Z"/><path class="cls-1" d="M38.45,153.31v2.14a13.32,13.32,0,0,1,2,0c.3.05.54.45.81.7-.26.21-.49.56-.77.6a14.72,14.72,0,0,1-2,0v2.49a20.07,20.07,0,0,1,2.46,0c.3,0,.56.43.83.66-.27.24-.53.66-.81.68a20.33,20.33,0,0,1-3.49,0,1.28,1.28,0,0,1-.85-.91c-.07-2.28,0-4.57,0-6.86,0-.72.29-1,1-1,1.12,0,2.25,0,3.36,0,.29,0,.55.45.83.69-.28.24-.53.63-.83.67A19.93,19.93,0,0,1,38.45,153.31Z"/><path class="cls-1" d="M97.61,171.28v2.48a22.21,22.21,0,0,1,2.46,0c.31,0,.59.41.88.62-.26.25-.52.69-.8.7a21.28,21.28,0,0,1-3.48,0,1.28,1.28,0,0,1-.87-.89c-.08-2.28,0-4.56,0-6.85,0-.69.27-1,1-1,1.12,0,2.24,0,3.36,0,.28,0,.54.45.82.69-.28.24-.53.64-.83.68a22.21,22.21,0,0,1-2.46,0v2.13c.59,0,1.1,0,1.61,0s1.3-.18,1.16.7c-.05.28-.78.52-1.23.63A7.1,7.1,0,0,1,97.61,171.28Z"/><path class="cls-1" d="M88.29,154c-2.07-.88-3-.84-3.73.1a4.49,4.49,0,0,0-.08,4.42c.72,1,1.73,1.08,3.81.22.45.93.15,1.52-.78,1.88a3.86,3.86,0,0,1-5.46-3.31c-.43-3.72,1.93-6.2,5.09-5.35C88.18,152.19,88.73,152.73,88.29,154Z"/><path class="cls-1" d="M34.53,154c-1.3-.65-2.59-1.31-3.73.1a4.39,4.39,0,0,0,0,4.42c.72.95,1.66,1,3.82.18.44,1,.1,1.52-.81,1.87a3.8,3.8,0,0,1-5.43-3.3,7.92,7.92,0,0,1,.51-3.38,3.79,3.79,0,0,1,5-1.82C34.75,152.47,35,153.07,34.53,154Z"/><path class="cls-1" d="M87.29,168.39c-2.25-.86-3.06-.8-3.79.23a4.4,4.4,0,0,0,0,4.41c.74.92,1.79,1,3.73.12a1.17,1.17,0,0,1-.73,1.88,3.83,3.83,0,0,1-5.47-3.4c-.34-3.61,1.75-5.92,4.8-5.32C87.22,166.57,87.53,167,87.29,168.39Z"/><path class="cls-1" d="M111.1,151.9c.4,2.32-1.5,1-2.33,1.83,0,1.73,0,3.74,0,5.75,0,.68,0,1.29-.94,1.29s-.89-.7-.89-1.33v-6.08a9.94,9.94,0,0,1-1.75,0,1,1,0,0,1-.66-.67c0-.25.38-.72.6-.73C107.11,151.87,109.08,151.9,111.1,151.9Z"/><path class="cls-1" d="M57,153.36v7.09c-1.58.58-1.82.42-1.82-1.13,0-1.92,0-3.85,0-6a7.65,7.65,0,0,1-1.61,0c-.31-.08-.56-.43-.85-.66.26-.26.51-.73.77-.74q2.58-.1,5.16,0c.27,0,.51.48.77.74-.28.23-.53.58-.85.66A7.14,7.14,0,0,1,57,153.36Z"/><path class="cls-1" d="M104.61,159.24c.28,1.09.08,1.46-.85,1.48-3.8.11-3.79.14-3.79-3.64a8,8,0,0,1,0-2.19c.31-1-1-2.91.82-2.91s.72,1.94.88,3a27.42,27.42,0,0,1,.06,4.28Z"/><path class="cls-1" d="M91.13,173.7a14.6,14.6,0,0,1,2.24,0c.29,0,.51.48.75.74-.24.22-.47.62-.72.64a20.36,20.36,0,0,1-3.22,0,1.19,1.19,0,0,1-.79-.84c-.06-2.37-.06-4.73,0-7.1,0-.29.59-.84.78-.8.36.09.9.52.91.83C91.17,169.3,91.13,171.4,91.13,173.7Z"/><path class="cls-1" d="M141.6,159.24a18.08,18.08,0,0,1,2.25,0c.27,0,.5.42.74.64-.25.26-.48.73-.75.75a18.23,18.23,0,0,1-3.22,0,1.2,1.2,0,0,1-.79-.86c-.07-2.36-.07-4.74,0-7.11,0-.28.59-.81.81-.77s.9.52.91.82C141.64,154.85,141.6,157,141.6,159.24Z"/><path class="cls-1" d="M77.63,163.86c-1.19,1.6-1.69,1.9-2.9,1.79C75.4,164,76.08,163.58,77.63,163.86Z"/><path class="cls-2" d="M113,114.28A52.76,52.76,0,0,0,127.47,111a54.84,54.84,0,0,0,12.93-7,61.09,61.09,0,0,0,10.71-10.06,59.49,59.49,0,0,1-5.72,16.43,65.7,65.7,0,0,1-121.8-12.3c-1.16-4.3-1.55-8.81-2.29-13.22-.07-.38-.15-.75-.23-1.13V77c.26-2.17.47-4.36.79-6.52,3.82-26.62,24.9-49.07,51-54.37l.65-.1C61.49,26,54.63,38.57,53,54m0,0C62.63,42.6,74.76,36.86,89.65,37.73a41.15,41.15,0,0,1,28.94,14,42.89,42.89,0,0,1-5.6,62.55m-.62.16c-16.86,1-31.5-4.14-43.44-16S51.84,71.77,52.8,54.71m0,0a42.55,42.55,0,0,0,5.63,57.54c17.42,15.59,41.37,12.62,53.94,2.19"/><path class="cls-3" d="M113,114.28A52.76,52.76,0,0,0,127.47,111a54.84,54.84,0,0,0,12.93-7,61.09,61.09,0,0,0,10.71-10.06,59.49,59.49,0,0,1-5.72,16.43,65.7,65.7,0,0,1-121.8-12.3c-1.16-4.3-1.55-8.81-2.29-13.22-.07-.38-.15-.75-.23-1.13V77c.26-2.17.47-4.36.79-6.52,3.82-26.62,24.9-49.07,51-54.37l.65-.1C61.49,26,54.63,38.57,53,54m0,0C62.63,42.6,74.76,36.86,89.65,37.73a41.15,41.15,0,0,1,28.94,14,42.89,42.89,0,0,1-5.6,62.55m-.62.16c-16.86,1-31.5-4.14-43.44-16S51.84,71.77,52.8,54.71m0,0a42.55,42.55,0,0,0,5.63,57.54c17.42,15.59,41.37,12.62,53.94,2.19"/><path class="cls-4" d="M62,0,16.13,51.61,0,123.1l93.37,50.64,60.82-48.63V88.91l-3.08-13L115.3,113.22s-1.36,1-5.7,1.94c-2.49.65-67.67-2-59.49-50.22,1.29-5.16,2.15-11.65,5.67-15.54C58.94,43.94,86.09,16,86.09,16L62,0"/></g></g></svg>