<svg xmlns="http://www.w3.org/2000/svg" viewBox="0 0 201.87 105.11"><defs><style>.cls-1{fill:#f9f;stroke:#fff;stroke-miterlimit:10;stroke-width:0.1px;}.cls-2{fill:#d9d9d9;}</style></defs><title>Recurso 5</title><g id="Capa_2" data-name="Capa 2"><g id="Capa_1-2" data-name="Capa 1"><path class="cls-1" d="M149.1,86q0,8.85-11.75,8.86T125.62,86V53.19h9.06V86c0,1.55.89,2.32,2.67,2.32S140,87.5,140,86V53.19h9.06Z"/><path class="cls-1" d="M154.85,53.19h9l6,20.18V53.19h8.49v41h-9l-5.77-19.63V94.16h-8.76Z"/><path class="cls-1" d="M185.3,53.19h9.06v41H185.3Z"/><path class="cls-1" d="M123.77,8.31h18.32v6.53H131.55V25.53h9.06v6.54h-9.06V49.29h-7.78Z"/><path class="cls-1" d="M146.58,8.31h9.06v41h-9.06Z"/><path class="cls-1" d="M162.29,8.31h9.06v41h-9.06Z"/><path class="cls-1" d="M178.33,16.52q0-8.83,11.73-8.84t11.76,8.84v5.81h-9.07V16.52c0-1.53-.88-2.3-2.66-2.31H190q-2.64,0-2.64,2.31v3.64q0,2.5,7,6.27,7.45,4,7.46,9.57v5.08q0,8.87-11.73,8.86t-11.76-8.86V35.27h9.06v5.81q0,2.31,2.7,2.31c1.78,0,2.66-.77,2.66-2.31V36.49q0-2.72-7-6.48-7.46-4-7.46-9.72Z"/><path class="cls-2" d="M52.55,0a52.56,52.56,0,1,0,52.56,52.55A52.55,52.55,0,0,0,52.55,0Zm0,95A42.45,42.45,0,1,1,95,52.55,42.44,42.44,0,0,1,52.55,95Z"/><path class="cls-2" d="M52.55,20.42A32.14,32.14,0,1,0,84.69,52.55,32.12,32.12,0,0,0,52.55,20.42Zm0,53.76A21.63,21.63,0,1,1,74.18,52.55,21.62,21.62,0,0,1,52.55,74.18Z"/><path class="cls-2" d="M52.55,39.82A12.74,12.74,0,1,0,65.29,52.55,12.73,12.73,0,0,0,52.55,39.82Zm5.27,18.53H47V57.18h10.8Zm-4-6.59c-.19,1.78-.79,2.08,1.6,4.09H48.58c0-3.26,1.66-7.84,3.84-8.26,1.61-.3,2.67-.34,2.67-.64.27,1.32,1.14,3.33,2.09,3.75s1.29,2.61,1.29,3C57.06,53.2,54.15,53.65,53.84,51.76Z"/></g></g></svg>