<svg xmlns="http://www.w3.org/2000/svg" viewBox="0 0 246.91 90.1"><defs><style>.cls-1{fill:#0082cf;}.cls-2{fill:#fff;}</style></defs><title>Recurso 3</title><g id="Capa_2" data-name="Capa 2"><g id="Capa_1-2" data-name="Capa 1"><polygon class="cls-1" points="99.05 10.52 108.71 27.33 108.75 27.41 114.03 27.41 114.03 0.45 109.06 0.45 109.06 17.76 99.2 0.45 94.07 0.45 94.07 27.41 99.05 27.41 99.05 10.52"/><polygon class="cls-2" points="140.97 31.23 135.99 31.23 135.99 48.53 126.14 31.23 121.01 31.23 121.01 58.19 125.99 58.19 125.99 41.29 135.64 58.1 135.69 58.19 140.97 58.19 140.97 31.23"/><path class="cls-2" d="M121.58,24.63a8.08,8.08,0,0,0,3,2.34,13.85,13.85,0,0,0,5.61.9,12.59,12.59,0,0,0,5-.83,8,8,0,0,0,3.07-2.21,7.88,7.88,0,0,0,1.57-3.42,37.71,37.71,0,0,0,.42-6.81V.45h-5.48v14.9a30.69,30.69,0,0,1-.23,4.49,3.53,3.53,0,0,1-1.28,2.2,4.89,4.89,0,0,1-3.19.89,5.17,5.17,0,0,1-3.29-.95,4.19,4.19,0,0,1-1.51-2.52,30.4,30.4,0,0,1-.19-4.42V.45H119.6V14.82a34.8,34.8,0,0,0,.5,6.8A7.76,7.76,0,0,0,121.58,24.63Z"/><path class="cls-1" d="M154.38,27.87A10.09,10.09,0,0,0,161,25.71a12.1,12.1,0,0,0,3.73-6.56l0-.15-5.12-1.77,0,.19a8,8,0,0,1-2,4.2,4.59,4.59,0,0,1-3.27,1.31,5.1,5.1,0,0,1-4.21-2.07c-1.09-1.39-1.64-3.78-1.64-7.09,0-3.12.56-5.4,1.66-6.78a5.25,5.25,0,0,1,4.29-2.06,4.8,4.8,0,0,1,3.24,1.16,5.7,5.7,0,0,1,1.76,3.17l0,.18,5.23-1.36,0-.16a10.94,10.94,0,0,0-2.55-5A9.92,9.92,0,0,0,154.68,0a10.61,10.61,0,0,0-8.43,3.74c-2.12,2.47-3.2,6-3.2,10.43,0,4.21,1.07,7.58,3.18,10A10.36,10.36,0,0,0,154.38,27.87Z"/><polygon class="cls-1" points="171.75 0.67 167.25 0.67 167.25 27.41 182.1 27.41 182.1 22.59 171.75 22.59 171.75 0.67"/><polygon class="cls-1" points="188.13 15.68 198.08 15.68 198.08 10.86 188.13 10.86 188.13 5.29 198.83 5.29 198.83 0.45 183.79 0.45 183.79 27.41 199.21 27.41 199.21 22.59 188.13 22.59 188.13 15.68"/><polygon class="cls-1" points="49.43 46.45 61.83 46.45 61.83 41.63 49.43 41.63 49.43 36.07 62.76 36.07 62.76 31.23 44.11 31.23 44.11 58.19 63.23 58.19 63.23 53.36 49.43 53.36 49.43 46.45"/><path class="cls-1" d="M215,.45h-5.57l-9.84,27h5.71l2.06-6h9.73l2.18,6h5.85L215.08.56Zm.36,16.09h-6.34l3.14-9.19Z"/><path class="cls-1" d="M158.39,31.23h-5.57l-9.84,27h5.71l2.06-6h9.74l2.18,6h5.84L158.43,31.34Zm.36,16.09h-6.34l3.14-9.2Z"/><path class="cls-1" d="M101,52.14h9.74l2.18,6h5.84L108.64,31.34l0-.11H103l-9.85,27H98.9Zm1.66-4.82,3.14-9.2,3.2,9.2Z"/><path class="cls-1" d="M244,22a31,31,0,0,0-2.62-4.35,10.81,10.81,0,0,0-2.16-2,6.87,6.87,0,0,0,4.19-2.45A8.09,8.09,0,0,0,245,8.09a9,9,0,0,0-1-4.28,5.68,5.68,0,0,0-2.72-2.62,14.17,14.17,0,0,0-5.33-.74h-9.79v27H231V16.3h.76a6.32,6.32,0,0,1,2.23.29,3.29,3.29,0,0,1,1.31,1.05,38.88,38.88,0,0,1,2.39,3.89l3.35,5.88h5.84Zm-4.54-11.63a2.42,2.42,0,0,1-1.2,1.06,15,15,0,0,1-4,.31H231V5.29h3.4a32.29,32.29,0,0,1,3.3.09,2.57,2.57,0,0,1,1.61,1,3.39,3.39,0,0,1,.58,2.07A3.77,3.77,0,0,1,239.48,10.34Z"/><polygon class="cls-1" points="91.14 58.19 91.14 31.23 83.3 31.23 78.96 48.85 74.58 31.23 66.76 31.23 66.76 58.19 71.77 58.19 71.77 38.52 76.36 58.05 76.39 58.19 81.49 58.19 86.13 38.51 86.13 58.19 91.14 58.19"/><path class="cls-1" d="M98.1,80.19a33.45,33.45,0,0,0,3.3-3.47,14.07,14.07,0,0,0,2-3.48,9.57,9.57,0,0,0,.64-3.5,7.26,7.26,0,0,0-2.22-5.4,8.36,8.36,0,0,0-6.11-2.17A9.23,9.23,0,0,0,89.81,64Q87.45,65.92,87,70.22l5,.52a5.17,5.17,0,0,1,1.08-3.26,3.72,3.72,0,0,1,5,0A3.67,3.67,0,0,1,99,70.11a5.88,5.88,0,0,1-1,3.19,35.69,35.69,0,0,1-4.17,4.46,34,34,0,0,0-5.66,6.52,12.84,12.84,0,0,0-1.72,5.21h17.64V84.64h-10a8.26,8.26,0,0,1,1-1.44C95.51,82.7,96.52,81.7,98.1,80.19Z"/><path class="cls-1" d="M115.26,62.17A7.23,7.23,0,0,0,109.2,65q-2.62,3.39-2.63,11.12T109,87a7.58,7.58,0,0,0,6.3,3.07,7.23,7.23,0,0,0,6.06-2.8q2.63-3.39,2.62-11.16T121.33,65A7.23,7.23,0,0,0,115.26,62.17ZM118.05,83a4.19,4.19,0,0,1-1.13,2.18,2.56,2.56,0,0,1-1.66.61,2.5,2.5,0,0,1-1.65-.6,4.66,4.66,0,0,1-1.2-2.4,30.31,30.31,0,0,1-.47-6.62,30.07,30.07,0,0,1,.53-6.84,4,4,0,0,1,1.13-2.18,2.53,2.53,0,0,1,1.66-.6,2.5,2.5,0,0,1,1.65.6,4.75,4.75,0,0,1,1.19,2.41,30,30,0,0,1,.48,6.61A30.51,30.51,0,0,1,118.05,83Z"/><rect class="cls-2" x="127.58" y="62.28" width="5.4" height="27.21"/><path class="cls-2" d="M16,28.59c.34-3.38-1.77-6.75,19.15-20.43,0,0-33.58,2-35.1,25.66,0,3.71,1.91,11.36,13.73,19.69C16.76,56,22.19,61.07,23,65c.42,2.27,2.45,4.81-18,21.43,4.13.68,26.41,1.69,33.92-17C40.59,65,40,55.76,33.67,49.68,28.18,44.37,15.27,34.92,16,28.59Z"/><path class="cls-1" d="M34.26,11.71S13,24.54,20.25,33.14c4.14,5.32,10.3,9.71,15.61,14.77-3.71-9.87-8.43-16-6.16-24.39A86,86,0,0,1,34.26,11.71Z"/><path class="cls-1" d="M5.13,83.62s21.26-12.82,14-21.43C15,56.87,8.84,52.48,3.52,47.42c3.72,9.87,8.44,16,6.16,24.39A85.37,85.37,0,0,1,5.13,83.62Z"/><path class="cls-1" d="M152.77,77.13a7,7,0,0,0-2.87-2.54,6.08,6.08,0,0,0,2.24-2.12,6.53,6.53,0,0,0,1-3.5,7.09,7.09,0,0,0-2.07-5.2,9.18,9.18,0,0,0-11.58,0A7.07,7.07,0,0,0,137.39,69a6.74,6.74,0,0,0,.89,3.4,5.78,5.78,0,0,0,2.4,2.23,6.8,6.8,0,0,0-2.88,2.73,8.5,8.5,0,0,0-1.05,4.17,8.09,8.09,0,0,0,2.8,6.5,8.87,8.87,0,0,0,5.91,2,8.09,8.09,0,0,0,6.13-2.43,8.74,8.74,0,0,0,2.31-6.29A7.66,7.66,0,0,0,152.77,77.13Zm-5.48-5.53a3,3,0,0,1-4.08,0,3.18,3.18,0,0,1-.76-2.26,3.1,3.1,0,0,1,.77-2.2,2.68,2.68,0,0,1,2.07-.82,2.62,2.62,0,0,1,2,.81,3.12,3.12,0,0,1,.76,2.19A3.18,3.18,0,0,1,147.29,71.6Zm-4.45,6.68a2.73,2.73,0,0,1,2.47-1.22,3,3,0,0,1,2.37,1.08,4.33,4.33,0,0,1,.95,2.92,4.8,4.8,0,0,1-.93,3.19,2.89,2.89,0,0,1-2.32,1.08,3,3,0,0,1-2.4-1.12,5.28,5.28,0,0,1-.14-5.93Z"/></g></g></svg>